<svg width="25" height="24" viewBox="0 0 25 24" fill="none" xmlns="http://www.w3.org/2000/svg">
<path d="M11.4092 2.78216C12.449 2.20625 13.747 2.54089 14.3848 3.5224L14.4676 3.66023L22.2266 17.6685C22.4114 18.0021 22.5084 18.3773 22.5084 18.7587C22.5084 19.9495 21.5832 20.9243 20.4124 21.0035L20.2584 21.0087H4.7426C4.36129 21.0087 3.98623 20.9118 3.65265 20.7271C2.61281 20.1513 2.20777 18.8734 2.70133 17.812L2.77422 17.6687L10.531 3.66046C10.7355 3.2911 11.0399 2.98674 11.4092 2.78216ZM20.9144 18.3953L13.1555 4.38702C12.9548 4.02467 12.4983 3.89363 12.136 4.09433C12.0437 4.14547 11.9635 4.21533 11.9005 4.299L11.8433 4.3871L4.08647 18.3954C3.88582 18.7577 4.01692 19.2141 4.37928 19.4148C4.46268 19.461 4.55385 19.4907 4.64785 19.5027L4.7426 19.5087H20.2584C20.6726 19.5087 21.0084 19.1729 21.0084 18.7587C21.0084 18.6633 20.9902 18.5691 20.9551 18.4811L20.9144 18.3953L13.1555 4.38702L20.9144 18.3953ZM12.5003 16.0018C13.0518 16.0018 13.4989 16.4489 13.4989 17.0004C13.4989 17.552 13.0518 17.9991 12.5003 17.9991C11.9487 17.9991 11.5016 17.552 11.5016 17.0004C11.5016 16.4489 11.9487 16.0018 12.5003 16.0018ZM12.4961 8.49955C12.8758 8.49925 13.1898 8.78115 13.2397 9.14718L13.2467 9.24895L13.2503 13.7505C13.2506 14.1648 12.9151 14.5008 12.5009 14.5011C12.1212 14.5014 11.8072 14.2195 11.7572 13.8535L11.7503 13.7517L11.7467 9.25015C11.7463 8.83594 12.0819 8.49988 12.4961 8.49955Z" fill="#CD163F"/>
</svg>
