<svg width="40" height="40" viewBox="0 0 40 40" fill="none" xmlns="http://www.w3.org/2000/svg">
<path d="M26.2498 28.4999C26.664 28.4998 27 28.8355 27 29.2497C27 29.6639 26.6644 29.9998 26.2502 29.9999L13.2502 30.0037C12.836 30.0038 12.5 29.6681 12.5 29.2539C12.5 28.8397 12.8356 28.5038 13.2498 28.5037L26.2498 28.4999ZM19.6482 10.0117L19.75 10.0049C20.1297 10.0049 20.4435 10.287 20.4932 10.6531L20.5 10.7549L20.499 24.4399L24.2208 20.7196C24.4871 20.4533 24.9038 20.4291 25.1974 20.647L25.2815 20.7197C25.5477 20.986 25.5719 21.4026 25.354 21.6962L25.2814 21.7803L20.2837 26.7769C20.0176 27.043 19.6012 27.0673 19.3076 26.8498L19.2235 26.7772L14.22 21.7806C13.9269 21.4879 13.9266 21.0131 14.2193 20.72C14.4854 20.4535 14.902 20.429 15.1958 20.6467L15.28 20.7192L18.999 24.4329L19 10.7549C19 10.3752 19.2822 10.0614 19.6482 10.0117L19.75 10.0049L19.6482 10.0117Z" fill="#262626"/>
</svg>
