<svg width="40" height="40" viewBox="0 0 40 40" fill="none" xmlns="http://www.w3.org/2000/svg">
<rect x="0.5" y="0.5" width="39" height="39" rx="19.5" fill="#EBEEEF"/>
<rect x="0.5" y="0.5" width="39" height="39" rx="19.5" stroke="#EBEEEF"/>
<path d="M18.7205 13.6919C18.6893 13.3115 18.383 13 18 13C17.617 13 17.3107 13.3115 17.2795 13.6919C16.9459 17.7286 13.7276 20.9466 9.6919 21.2789C9.31026 21.3101 9 21.6177 9 21.9994C9 22.3823 9.31025 22.6886 9.6919 22.7211C13.728 23.0534 16.9459 26.2714 17.2795 30.3069C17.3107 30.6885 17.617 31 18 31C18.383 31 18.6893 30.6885 18.7205 30.3069C19.0541 26.2711 22.2724 23.0534 26.3081 22.7211C26.6897 22.6886 27 22.3823 27 21.9994C27 21.6178 26.6897 21.3101 26.3081 21.2789C22.272 20.9466 19.0541 17.7286 18.7205 13.6919Z" fill="#262626"/>
<path d="M27.4722 9.44444C27.4422 9.2 27.2455 9 27 9C26.7544 9 26.5589 9.2 26.5289 9.44444C26.3278 11.0533 25.0534 12.3278 23.4444 12.5289C23.2 12.5589 23 12.7544 23 13C23 13.2455 23.2 13.4422 23.4444 13.4722C25.0533 13.6722 26.3278 14.9477 26.5289 16.5567C26.5589 16.8 26.7544 17 27 17C27.2455 17 27.4422 16.8 27.4722 16.5567C27.6722 14.9478 28.9477 13.6722 30.5567 13.4722C30.8 13.4422 31 13.2455 31 13C31 12.7544 30.8 12.5589 30.5567 12.5289C28.9478 12.3278 27.6722 11.0534 27.4722 9.44444Z" fill="#262626"/>
</svg>
